<?xml version="1.0" encoding="utf-8"?>
<!-- Generator: Adobe Illustrator 24.0.1, SVG Export Plug-In . SVG Version: 6.00 Build 0)  -->
<svg version="1.1" id="Layer_1" xmlns="http://www.w3.org/2000/svg" xmlns:xlink="http://www.w3.org/1999/xlink" x="0px" y="0px"
	 viewBox="0 0 24 24" style="enable-background:new 0 0 24 24;" xml:space="preserve">
<path d="M12,2C6.5,2,2,6.5,2,12c0,4.2,2.6,7.8,6.4,9.3c-0.1-0.8-0.2-2,0-2.9c0.2-0.8,1.2-5,1.2-5S9.3,12.9,9.3,12
	c0-1.4,0.8-2.4,1.8-2.4c0.9,0,1.3,0.6,1.3,1.4c0,0.9-0.5,2.1-0.8,3.3c-0.2,1,0.5,1.8,1.5,1.8c1.8,0,3.1-1.9,3.1-4.6
	c0-2.4-1.7-4.1-4.2-4.1c-2.8,0-4.5,2.1-4.5,4.3c0,0.9,0.3,1.8,0.7,2.3c0.1,0.1,0.1,0.2,0.1,0.3c-0.1,0.3-0.2,1-0.3,1.1
	c0,0.2-0.1,0.2-0.3,0.1c-1.2-0.6-2-2.4-2-3.9c0-3.2,2.3-6.1,6.6-6.1c3.5,0,6.2,2.5,6.2,5.8c0,3.4-2.2,6.2-5.2,6.2
	c-1,0-2-0.5-2.3-1.1c0,0-0.5,1.9-0.6,2.4c-0.2,0.9-0.8,2-1.2,2.6C10,21.8,11,22,12,22c5.5,0,10-4.5,10-10C22,6.5,17.5,2,12,2z"/>
</svg>
