<?xml version="1.0" encoding="utf-8"?>
<!-- Generator: Adobe Illustrator 24.0.1, SVG Export Plug-In . SVG Version: 6.00 Build 0)  -->
<svg version="1.1" id="Layer_1" xmlns="http://www.w3.org/2000/svg" xmlns:xlink="http://www.w3.org/1999/xlink" x="0px" y="0px"
	 viewBox="0 0 48 48" style="enable-background:new 0 0 48 48;" xml:space="preserve">
<path style="fill:#D32F2F;" d="M24,4C13,4,4,13,4,24s9,20,20,20s20-9,20-20S35,4,24,4z"/>
<path style="fill:#FFFFFF;" d="M19.6,27c0-3.3-0.6-4.5-0.6-5.8c0-3,2.1-3.2,3-3.2c1.3,0,3,0.9,3,2.5c0,2.4-2,2.7-2,2.7s0,0.8,0,2.3
	c0,1.5,0.4,3.5,3.1,3.5c4.4,0,4.9-6.2,4.9-7.8c0-2.3-1.5-7.2-6.8-7.2c-7.1,0-8.2,6.3-8.2,8c0,0.7,0.1,2.1,0.3,2.7
	c2.1,0.5,1.6,2.4,1,2.9c-0.8,0.8-4.3,0.9-4.3-6.2C13,14.5,19.1,11,24.4,11C29.5,11,35,14.5,35,21.2c0,6-4.3,10.8-8.9,10.8
	c-2.7,0-4.2-2.2-4.2-2.2c0,4.2-3.5,10.3-4,11.2C18,41,19.6,33.1,19.6,27z"/>
</svg>
