<?xml version="1.0" encoding="utf-8"?>
<!-- Generator: Adobe Illustrator 23.0.3, SVG Export Plug-In . SVG Version: 6.00 Build 0)  -->
<svg version="1.1" id="Layer_1" xmlns="http://www.w3.org/2000/svg" xmlns:xlink="http://www.w3.org/1999/xlink" x="0px" y="0px"
	 viewBox="0 0 40 40" style="enable-background:new 0 0 40 40;" xml:space="preserve">
<style type="text/css">
	.st0{fill:#F78F8F;}
	.st1{fill:#C74343;}
	.st2{fill:#FFFFFF;}
</style>
<path class="st0" d="M20,38.5C9.8,38.5,1.5,30.2,1.5,20S9.8,1.5,20,1.5S38.5,9.8,38.5,20S30.2,38.5,20,38.5z"/>
<path class="st1" d="M20,2c9.9,0,18,8.1,18,18s-8.1,18-18,18S2,29.9,2,20S10.1,2,20,2 M20,1C9.5,1,1,9.5,1,20s8.5,19,19,19
	s19-8.5,19-19S30.5,1,20,1L20,1z"/>
<g>
	<path class="st2" d="M20.1,9C12.4,9,8.3,14.1,8.3,19.7c0,2.6,1.4,5.8,3.6,6.9c0.3,0.2,0.5,0.1,0.6-0.2c0.1-0.2,0.4-1.5,0.5-2
		c0-0.2,0-0.3-0.1-0.5c-0.7-0.9-1.3-2.5-1.3-4.1c0-3.9,3-7.7,8-7.7c4.4,0,7.4,3,7.4,7.2c0,4.8-2.4,8.1-5.6,8.1c-1.7,0-3-1.4-2.6-3.2
		c0.5-2.1,1.5-4.4,1.5-5.9c0-1.4-0.7-2.5-2.2-2.5c-1.8,0-3.2,1.8-3.2,4.3c0,1.6,0.5,2.6,0.5,2.6s-1.8,7.4-2.1,8.8
		c-0.4,1.5-0.2,3.6-0.1,5c0.4,0.2,0.8,0.3,1.2,0.5c0.7-1.2,1.8-3.1,2.2-4.6c0.2-0.8,1.1-4.2,1.1-4.2c0.6,1.1,2.3,2,4.1,2
		c5.4,0,9.2-4.9,9.2-11C31,13.4,26.2,9,20.1,9z"/>
</g>
</svg>
